<svg width="375" height="118" viewBox="0 0 375 118" fill="none" xmlns="http://www.w3.org/2000/svg">
<path d="M34.6527 0.983508C34.4024 1.01479 33.6201 1.1243 32.9318 1.21817C22.7002 2.5636 13.2353 8.63369 7.11827 17.7858C2.37797 24.8571 0 32.8358 0 41.6437C0 47.4791 0.923029 52.4384 2.97246 57.6011C7.66583 69.491 17.6158 78.5179 29.0989 81.3652C33.1195 82.3508 36.5926 82.6481 41.1452 82.3977C50.8761 81.8502 57.9631 79.9572 64.6902 76.0773C66.8179 74.8414 68.0694 73.934 69.5087 72.5573L70.7134 71.3996V62.8577C70.7134 53.4397 70.7759 52.7826 71.6208 51.5467C72.2778 50.5924 73.5137 49.4816 74.4055 49.0279C74.8279 48.8245 75.7666 48.4491 76.5019 48.2144C78.3792 47.6043 78.6921 47.4009 78.6921 46.7751V46.2588H58.933C39.9718 46.2588 39.1427 46.2745 38.908 46.5404C38.5169 46.9628 38.5795 47.2757 39.127 47.7294C39.5964 48.1205 40.1126 48.3083 43.179 49.1531C46.9806 50.1856 49.7966 52.2507 51.0012 54.8633L51.5488 56.0367L51.627 62.8421C51.7209 70.3045 51.6114 73.011 51.142 74.8414C50.7509 76.3902 50.5319 76.7188 49.515 77.1725C48.7328 77.5323 48.4981 77.5636 46.1984 77.5479C43.5544 77.5479 42.2246 77.3289 40.1908 76.5623C31.0857 73.1362 24.3273 62.3258 22.7472 48.6212C22.4343 45.9772 22.3874 39.9228 22.6533 37.6543C23.4512 31.068 24.8123 26.2964 27.2997 21.384C32.744 10.7144 41.6614 5.61429 50.4537 8.16435C58.0569 10.3702 64.5025 18.1769 67.5845 28.909C68.0225 30.4109 68.398 31.3026 68.6796 31.4747C68.883 31.5999 69.2584 30.802 69.54 29.6443C70.244 26.6406 70.4787 13.2175 69.8529 10.5736L69.587 9.38463L67.9912 9.29076C64.7059 9.10303 61.8742 8.21128 57.4937 5.97412C52.378 3.36148 49.077 2.20378 44.587 1.40591C42.6783 1.07737 41.7397 0.99915 38.7203 0.967858C36.7491 0.936574 34.9186 0.952216 34.6527 0.983508Z" fill="white"/>
<path d="M195.244 19.4284C188.454 20.5079 182.932 24.7319 180.835 30.4735C180.163 32.3352 179.912 33.7901 179.912 36.0117C179.912 40.0323 180.945 43.4585 183.12 46.7282C185.075 49.6693 185.779 50.2169 197.747 58.399C206.774 64.5473 208.511 65.9397 209.387 67.6606C210.263 69.3971 210.419 70.6956 210.028 72.9172C209.715 74.6537 209.011 75.9991 207.775 77.235C205.961 79.0342 204.13 79.7382 201.189 79.7382C197.716 79.7382 194.493 78.8308 191.177 76.9065C189.643 76.0304 189.518 75.9835 188.486 75.9835H187.422V82.1944L188.314 82.3039C188.814 82.3665 190.144 82.6793 191.27 83.0235C195.025 84.1186 196.762 84.3533 201.424 84.3533C204.584 84.3377 205.82 84.2751 206.978 84.0717C216.802 82.2726 222.012 76.2181 222.419 66.1274C222.653 60.0417 221.011 55.4735 217.021 51.2338C215.207 49.3095 213.157 47.7764 204.396 41.8001C192.913 33.9779 192.71 33.8214 191.724 31.8033C190.692 29.7069 190.676 28.0799 191.662 26.093C192.412 24.6068 193.68 23.6525 195.792 23.011C197.2 22.573 201.111 22.6199 202.832 23.0893C204.255 23.4647 206.07 24.2939 207.118 25.0292C207.838 25.5298 207.838 25.5298 209.528 25.4829L211.202 25.4359V20.9147H210.717C210.451 20.9147 208.792 20.6331 207.024 20.2732C205.241 19.9291 203.051 19.5379 202.143 19.4128C200.094 19.1468 197.012 19.1625 195.244 19.4284Z" fill="white"/>
<path d="M75.2192 26.5311C75.0001 26.6093 75.36 26.9691 76.7367 28.1112C79.1459 30.0824 79.6935 30.802 80.4444 32.961C81.1484 34.9948 81.1797 35.7457 81.1954 53.3302C81.211 64.8133 81.1641 70.2263 81.0546 70.8208C80.7886 72.1662 80.2254 73.9966 79.9438 74.419C79.803 74.6381 79.4119 75.2326 79.0677 75.7488C78.4263 76.7344 76.4551 78.7839 74.39 80.6612L73.1384 81.7876L74.1553 81.6938C74.7185 81.6468 76.721 81.287 78.614 80.9115C85.4507 79.5348 87.4532 79.4253 104.036 79.4253H117.303L117.694 78.3615C117.897 77.7826 118.195 76.9065 118.336 76.4215C118.476 75.9209 118.633 75.4203 118.68 75.2795C118.774 75.0761 117.491 75.0448 106.633 75.0448H94.4932V60.0261H102.159V47.8233H95.0877L95.1973 42.2226C95.2598 39.1562 95.3537 35.9647 95.4163 35.1512L95.5101 33.665H105.929L116.364 33.6806L116.13 32.8828C116.005 32.4604 115.739 31.5999 115.551 31.0054L115.207 29.9103L107.713 29.8008C93.6015 29.6131 89.3149 29.2063 80.1003 27.2664C76.6741 26.5311 75.6416 26.3746 75.2192 26.5311Z" fill="white"/>
<path d="M320.432 29.394C320.479 29.8477 320.604 29.9572 321.699 30.5517C323.232 31.3652 324.014 32.1162 324.578 33.3364L325.016 34.2908V73.0892L324.562 74.0123C323.905 75.3577 323.248 75.9991 321.746 76.7501C320.447 77.3915 320.4 77.4384 320.4 77.9547V78.4866H342.459V78.1268C342.459 77.6418 342.006 77.2507 340.613 76.5311C339.362 75.874 338.783 75.2482 338.11 73.8402L337.688 72.9328L337.625 43.521L337.969 43.9747C338.157 44.2251 339.111 45.4453 340.097 46.7125C341.083 47.9641 345.51 53.6431 349.937 59.3064L357.994 69.6162L357.9 73.9028L357.791 78.1737H363.955C369.665 78.1737 370.119 78.1581 370.244 77.8921C370.447 77.4541 370.526 55.6456 370.322 55.6456C370.072 55.6456 370.088 35.7926 370.322 34.6506C370.557 33.5711 371.324 32.1318 371.981 31.553C372.278 31.287 372.997 30.8333 373.592 30.5361C374.64 30.0042 375 29.6443 375 29.1437C375 28.9247 373.874 28.8934 363.955 28.8934H352.926L352.972 29.394C353.019 29.8634 353.129 29.9729 354.271 30.5674C356.367 31.6625 357.322 33.0236 357.603 35.3546C357.666 35.8865 357.681 41.5029 357.635 47.8233L357.556 59.3377L333.777 28.8934H320.385L320.432 29.394Z" fill="white"/>
<path d="M121.277 30.3327C121.324 30.7864 121.449 30.9116 122.653 31.5686C124.171 32.4134 125 33.2583 125.516 34.5255L125.86 35.3859L125.907 54.0029C125.939 66.675 125.892 72.9328 125.782 73.5899C125.469 75.4516 124.546 76.6406 122.653 77.6105C121.292 78.3146 121.245 78.3615 121.245 78.8778V79.4253H143.304V79.0655C143.304 78.5179 143.023 78.2363 141.787 77.6262C140.426 76.9378 139.409 75.874 138.892 74.6068L138.533 73.7151L138.501 59.0874C138.47 45.2107 138.47 44.4754 138.736 44.8509C138.877 45.0542 139.659 46.0868 140.473 47.1193C141.286 48.1519 145.573 53.6431 150 59.3221C154.427 65.001 158.213 69.8196 158.417 70.0542L158.792 70.4454V79.2689H165.034C168.805 79.2689 171.324 79.2063 171.386 79.1281C171.433 79.0342 171.386 69.1938 171.292 57.257L171.12 35.5424L171.449 34.6506C171.981 33.2583 172.685 32.476 173.999 31.7877C175.391 31.068 175.845 30.6769 175.845 30.1919V29.8321H164.831C154.772 29.8321 153.817 29.8477 153.723 30.0824C153.551 30.5205 154.068 31.068 155.1 31.5374C156.852 32.3352 157.916 33.665 158.323 35.5736C158.432 36.0586 158.464 40.5643 158.448 48.2614L158.401 60.2138L134.668 29.8321H121.23L121.277 30.3327Z" fill="white"/>
<path d="M224.187 30.1137C224.187 30.6143 224.625 31.0211 225.641 31.5217C227.394 32.3509 228.285 33.3678 228.786 35.1512C229.005 35.8865 229.036 37.67 229.099 47.9016C229.13 54.441 229.161 59.854 229.161 59.9479C229.161 60.0261 229.115 63.374 229.052 67.379C228.927 75.17 228.958 74.8258 228.051 77.4228C227.832 78.0017 227.597 78.5649 227.519 78.6744C227.441 78.7839 227.331 78.9403 227.284 79.0342C227.19 79.1907 246.23 79.175 246.386 79.0186C246.417 78.9873 246.37 78.7839 246.277 78.5492C246.151 78.2833 245.745 78.0017 245.072 77.6888C243.398 76.9378 242.522 75.9835 241.927 74.2626C241.661 73.4804 241.63 72.9015 241.63 67.2695V61.1525L242.1 60.4798C243.023 59.1969 242.631 59.2439 251.502 59.2439C258.996 59.2439 259.371 59.2595 260.059 59.5567C260.56 59.7914 260.826 60.0261 261.029 60.4485C261.358 61.1212 261.733 62.4823 261.624 62.5761C261.593 62.6231 261.561 64.8602 261.577 67.5511C261.577 70.3358 261.514 72.839 261.421 73.3083C261.045 75.3265 260.013 76.7188 258.339 77.5323C256.993 78.1894 256.727 78.4241 256.727 78.9873V79.4253H267.741C278.63 79.4253 278.755 79.4253 278.833 79.1124C278.958 78.6431 278.52 78.2363 277.143 77.501C275.657 76.7032 274.875 75.7801 274.406 74.2783C274.093 73.3083 274.093 72.8233 274.093 54.6913C274.093 42.1131 274.14 35.8709 274.249 35.3546C274.64 33.6337 275.657 32.4134 277.519 31.4748C278.645 30.9116 279.021 30.5205 278.849 30.0824C278.755 29.8634 277.613 29.8321 267.741 29.8321H256.727V30.2076C256.727 30.7238 257.04 30.9898 258.292 31.6312C260.044 32.5073 260.983 33.7589 261.405 35.7457C261.64 36.8409 261.64 47.6669 261.405 48.496C261.202 49.2626 260.451 50.1074 259.762 50.3265C259.402 50.4516 256.79 50.5142 251.439 50.5298C242.85 50.5611 243.257 50.6081 242.272 49.5599C241.943 49.2157 241.771 48.8559 241.693 48.2614C241.505 46.9316 241.536 36.8878 241.724 35.8396C242.084 33.8527 243.054 32.523 244.728 31.6938C245.932 31.0837 246.402 30.6613 246.402 30.1919V29.8321H235.294C224.75 29.8321 224.187 29.8477 224.187 30.1137Z" fill="white"/>
<path d="M286.452 30.2858C286.452 30.8021 286.514 30.8334 289.455 31.772C291.943 32.5856 293.179 33.5086 293.945 35.1356L294.352 36.0117V73.4022L293.992 74.0906C293.101 75.7332 291.145 77.063 288.642 77.7044C287.922 77.8922 287.14 78.1425 286.905 78.2676C286.405 78.518 286.154 79.0812 286.467 79.2845C286.796 79.4879 315.191 79.4566 315.566 79.2689C316.38 78.8309 315.598 78.252 313.392 77.6419C310.951 76.9535 309.762 76.2182 308.401 74.5443C307.744 73.7307 307.713 72.7295 307.76 53.8465L307.807 36.0117L308.245 35.1356C308.745 34.1031 309.872 32.9923 310.982 32.4291C311.42 32.2101 312.547 31.8033 313.47 31.5374C315.222 31.0367 315.989 30.5518 315.817 30.0824C315.723 29.8634 314.299 29.8321 301.079 29.8321H286.452V30.2858Z" fill="white"/>
<path d="M216.051 94.9446C216.051 95.0541 216.239 95.5861 216.458 96.118L216.865 97.0879L213.063 105.661C209.621 113.39 209.183 114.297 208.526 114.954C208.041 115.455 207.556 115.768 206.962 115.955C205.241 116.518 204.772 116.988 205.742 117.191C206.008 117.238 208.12 117.285 210.404 117.285C213.658 117.285 214.643 117.238 214.878 117.082C215.285 116.769 215.081 116.565 213.939 116.19C213.376 116.002 212.688 115.674 212.437 115.439C211.984 115.064 211.952 114.97 212.015 114.25C212.062 113.749 212.375 112.811 212.829 111.778L213.595 110.089H222.716L223.467 111.856C224.718 114.735 224.609 115.392 222.747 116.018C221.73 116.362 221.214 116.722 221.214 117.082C221.214 117.269 222.278 117.301 228.473 117.254C232.462 117.222 235.795 117.16 235.857 117.097C236.092 116.863 235.388 116.346 234.387 116.018C232.384 115.345 232.572 115.658 227.644 104.613L223.295 94.8351L219.665 94.7882C216.834 94.7569 216.051 94.7882 216.051 94.9446ZM220.041 104.144L221.668 107.82L218.21 107.867C216.317 107.883 214.722 107.867 214.69 107.836C214.643 107.789 215.41 105.99 216.38 103.815C217.741 100.796 218.179 99.9509 218.273 100.17C218.351 100.342 219.133 102.125 220.041 104.144Z" fill="white"/>
<path d="M118.617 95.3357L113.407 95.3827L113.517 95.7425C113.564 95.9302 113.626 96.0867 113.642 96.0867C113.642 96.1023 114.033 96.2744 114.503 96.4778C115.598 96.9784 116.63 97.9953 116.849 98.7619C116.959 99.153 117.021 101.86 117.021 106.35V113.327L116.662 114.015C116.177 114.907 115.254 115.611 113.955 116.033C113.392 116.221 112.766 116.534 112.578 116.722L112.25 117.05L113.032 117.16C114.284 117.316 121.339 117.301 121.777 117.129C121.996 117.05 122.184 116.925 122.184 116.847C122.184 116.769 121.809 116.456 121.339 116.143C120.401 115.517 119.822 114.829 119.54 114.015C119.431 113.656 119.368 111.497 119.384 107.132V100.78L119.681 101.406C120.729 103.565 121.308 104.879 121.308 105.098C121.324 105.239 121.402 105.442 121.511 105.567C121.621 105.692 122.403 107.382 123.248 109.322C126.377 116.44 126.768 117.285 126.971 117.285C127.347 117.285 128.285 116.19 128.817 115.126C129.099 114.547 130.616 111.199 132.197 107.664C133.777 104.128 135.091 101.218 135.122 101.171C135.153 101.14 135.169 103.956 135.138 107.429C135.091 113.749 135.091 113.765 134.715 114.532C134.481 115.001 134.105 115.439 133.714 115.705C132.838 116.284 132.353 116.769 132.353 117.05C132.353 117.254 133.151 117.285 139.377 117.285C146.292 117.285 147.325 117.222 147.168 116.769C147.137 116.675 146.543 116.378 145.854 116.112C144.102 115.455 143.429 114.97 142.929 113.984L142.522 113.155V106.271C142.538 100.921 142.585 99.2469 142.741 98.7775C143.101 97.7763 143.695 97.1662 144.822 96.6342C145.807 96.1805 146.277 95.8207 146.277 95.5078C146.277 95.4453 143.789 95.3827 140.738 95.3827H135.2L134.747 96.3526C134.496 96.9002 133.339 99.4659 132.181 102.063C131.039 104.66 130.053 106.756 129.991 106.725C129.944 106.678 128.755 104.081 127.347 100.936L124.781 95.2262L124.312 95.2575C124.046 95.2888 121.48 95.3201 118.617 95.3357Z" fill="white"/>
<path d="M79.4743 95.4765C79.4743 95.852 79.928 96.1962 80.8666 96.4934C82.259 96.9471 83.2602 97.6668 83.6826 98.5429C83.9955 99.2156 84.0112 99.419 84.0112 106.318C84.0112 112.967 83.9955 113.421 83.7139 113.968C83.182 115.001 82.3998 115.564 80.7884 116.096C79.9749 116.362 79.3335 116.878 79.5368 117.097C79.5994 117.16 83.229 117.222 87.5781 117.254C94.1801 117.285 95.5569 117.269 95.8072 117.082C95.9636 116.957 96.0575 116.784 96.0106 116.706C95.948 116.612 95.2909 116.315 94.54 116.033C93.4448 115.627 93.0068 115.376 92.4279 114.782C91.3641 113.687 91.3328 113.452 91.3954 105.755C91.4423 99.3408 91.4423 99.1999 91.7865 98.5585C92.2872 97.6511 93.0537 97.0723 94.5713 96.4934C95.948 95.9772 96.2452 95.7581 95.8854 95.5235C95.6507 95.3827 79.4743 95.3201 79.4743 95.4765Z" fill="white"/>
<path d="M164.628 95.4765C164.237 95.6486 164.44 95.8207 165.817 96.556C167.412 97.3852 167.913 97.964 168.179 99.2312C168.288 99.7631 168.335 102.313 168.304 106.741C168.257 114.297 168.304 113.906 167.021 115.048C166.536 115.47 165.957 115.783 165.207 116.018C164.174 116.346 163.533 116.831 163.736 117.16C163.783 117.222 167.506 117.285 172.028 117.285C179.021 117.285 180.225 117.254 180.225 117.066C180.225 116.675 179.803 116.393 178.739 116.033C177.425 115.595 176.486 114.891 176.048 114C175.72 113.374 175.688 113.077 175.688 110.996V108.681H177.472C180.804 108.681 183.198 108.008 185.278 106.475C189.205 103.596 188.501 98.9496 183.777 96.6342C181.367 95.4609 181.555 95.4765 172.716 95.4296C168.367 95.414 164.722 95.4296 164.628 95.4765ZM177.66 97.6511C178.004 97.8545 178.567 98.3238 178.88 98.6837C180.46 100.42 180.616 102.736 179.302 104.801C178.817 105.567 177.534 106.506 176.705 106.709C176.439 106.772 176.111 106.85 175.97 106.897C175.704 106.975 175.688 106.662 175.688 101.985V96.9784L176.361 97.1349C176.721 97.2131 177.3 97.4477 177.66 97.6511Z" fill="white"/>
<path d="M263.376 95.5549C259.48 96.2745 256.117 98.6838 254.552 101.844C250.641 109.744 258.119 118.302 267.897 117.129C270.995 116.753 273.044 115.846 274.89 114C275.626 113.264 276.22 112.498 276.47 111.966C276.908 111.027 277.159 109.932 276.94 109.932C276.862 109.932 276.392 110.464 275.892 111.106C274.296 113.202 272.575 114.141 270.087 114.266C267.553 114.422 265.613 113.687 263.923 111.982C262.296 110.339 261.577 108.493 261.577 105.974C261.577 101.077 264.893 97.4948 269.149 97.7764C271.683 97.9328 273.357 99.0123 275.015 101.531C275.704 102.564 276.064 102.986 276.158 102.861C276.439 102.407 276.204 96.9785 275.892 96.6656C275.86 96.6187 275.266 96.6813 274.577 96.7751C273.326 96.9629 273.31 96.9629 271.73 96.4153C270.854 96.1024 269.571 95.7426 268.883 95.6174C267.522 95.3671 264.628 95.3358 263.376 95.5549Z" fill="white"/>
<path d="M296.277 98.6212C296.245 100.42 296.261 101.938 296.323 102C296.605 102.345 297.121 101.875 297.653 100.811C298.764 98.543 299.703 98.011 302.847 97.9172L304.912 97.8546V105.567C304.912 113.061 304.897 113.296 304.584 113.953C304.193 114.766 303.363 115.47 302.409 115.83C299.781 116.785 299.718 117.035 302.049 117.176C305.961 117.426 316.959 117.254 316.959 116.941C316.959 116.722 316.02 116.221 314.972 115.861C313.705 115.439 312.844 114.626 312.516 113.515C312.297 112.826 312.265 111.528 312.265 105.27V97.8546L314.346 97.9328C315.472 97.9798 316.677 98.1049 317.006 98.2144C317.976 98.543 318.914 99.4816 319.524 100.749C320.134 102.016 320.666 102.501 320.776 101.907C320.964 100.999 321.011 99.4034 320.917 97.4791L320.823 95.3828H296.339L296.277 98.6212Z" fill="white"/>
</svg>
